<svg xmlns="http://www.w3.org/2000/svg" fill="white" viewBox="1 0 48 48"><g data-name="18-check list"><path d="M38.59 11.24a1.14 1.14 0 0 0-.06-.25s0-.07 0-.09a.84.84 0 0 0-.18-.28l-5.59-5.9-.08-.06a.77.77 0 0 0-.21-.14h-.11a1 1 0 0 0-.24 0H10.4a1 1 0 0 0-1 1v37.07a1 1 0 0 0 1 1h27.2a1 1 0 0 0 1-1V11.31s-.01-.04-.01-.07ZM33 7.92l2.27 2.39H33ZM11.4 41.59V6.41H31v4.9a1 1 0 0 0 1 1h4.6v29.28Z"/><path d="M20.86 21h-5.72a1 1 0 0 0-1 1v5.7a1 1 0 0 0 1 1h5.72a1 1 0 0 0 1-1V22a1 1 0 0 0-1-1zm-1 5.71h-3.72V23h3.72zM25 16.64h8a1 1 0 0 0 0-2h-8a1 1 0 0 0 0 2zm8 7.2h-8a1 1 0 0 0 0 2h8a1 1 0 0 0 0-2zM20.86 30.3h-5.72a1 1 0 0 0-1 1V37a1 1 0 0 0 1 1h5.72a1 1 0 0 0 1-1v-5.7a1 1 0 0 0-1-1zm-1 5.71h-3.72V32.3h3.72zM34 33.15h-9a1 1 0 0 0 0 2h9a1 1 0 0 0 0-2zM23.94 11.46a1 1 0 0 0-1.41-.07L17.46 16l-1.4-1.47a1 1 0 0 0-1.45 1.37l2.06 2.19a1 1 0 0 0 .73.31 1 1 0 0 0 .67-.26l5.81-5.26a1 1 0 0 0 .06-1.42z"/></g></svg>
